<svg width="26" height="25" viewBox="0 0 26 25" fill="none" xmlns="http://www.w3.org/2000/svg">
<path d="M8.75606 24.0625H2.9375C2.42364 24.0625 1.93083 23.8583 1.56748 23.495C1.20413 23.1316 1 22.6388 1 22.125L1.00182 12.1311C1.00174 12.0656 1.01496 12.0008 1.04066 11.9405C1.06637 11.8802 1.10403 11.8258 1.15137 11.7805L12.298 1.13216C12.3882 1.04593 12.5081 0.997803 12.6329 0.997803C12.7576 0.997803 12.8776 1.04593 12.9677 1.13216L24.1101 11.7805C24.1575 11.8258 24.1951 11.8802 24.2208 11.9405C24.2465 12.0008 24.2598 12.0656 24.2597 12.1311V22.125C24.2597 22.6388 24.0556 23.1316 23.6922 23.495C23.3289 23.8583 22.836 24.0625 22.3222 24.0625H16.5061" stroke="white" stroke-width="1.5"/>
</svg>
